<?xml version="1.0" encoding="UTF-8"?>
<svg width="125px" height="48px" viewBox="0 0 125 48" version="1.1" xmlns="http://www.w3.org/2000/svg" xmlns:xlink="http://www.w3.org/1999/xlink">
    <title>Videvo logo</title>
    <defs>
        <rect id="path-1" x="0" y="0" width="90" height="60"></rect>
    </defs>
    <g id="Videvo-logo" stroke="none" stroke-width="1" fill="none" fill-rule="evenodd">
        <g id="New-nav-Logo" transform="translate(15.000000, 0.000000)">
            <mask id="mask-2" fill="white">
                <use xlink:href="#path-1"></use>
            </mask>
            <g id="Rectangle"></g>
            <g id="Videvo-logo" mask="url(#mask-2)">
                <g transform="translate(1.000000, 17.000000)"></g>
            </g>
        </g>
        <path d="M56.2022018,9.79922212 C56.4127077,10.1136982 56.3879423,10.4369585 56.400325,10.7988695 C56.3861734,15.3684349 56.4056319,19.9415141 56.3914802,24.5110796 C56.3260288,27.4063675 54.4562407,29.9573129 51.905404,31.2485973 C50.4088659,32.0057994 48.7124357,32.1691864 47.0637673,31.9618782 C43.9999329,31.5683439 41.3128864,29.1263231 40.5062418,26.187114 C40.1276849,24.774607 40.1471434,23.2303363 40.5150866,21.8178293 C41.0121636,19.9801648 42.2203616,18.4622468 43.7558167,17.3589454 C46.5949935,15.378976 50.6848233,15.542363 53.3807145,17.7068016 C53.3771766,15.3420822 53.3807145,12.9843902 53.3771766,10.617914 C53.3577181,10.1224824 53.5593793,9.69029745 53.9573947,9.39338989 C54.6579019,8.88214669 55.7387349,9.05256109 56.2022018,9.79922212 Z M49.2696573,19.0982264 C48.5019297,18.9488942 47.7165126,18.9928154 46.9629367,19.1860688 C45.8308039,19.5233839 44.7570467,20.2507196 44.1272978,21.2538807 C43.4073321,22.3554253 43.0853818,23.7292816 43.3843357,25.0223228 C43.6709068,26.3750969 44.535927,27.5627271 45.7122837,28.2935765 C47.0089296,29.0771313 48.6452153,29.2528163 50.0674571,28.708193 C52.0769929,27.9738299 53.4744693,25.9376413 53.363025,23.8030692 C53.2887288,21.5349766 51.5091575,19.5128428 49.2696573,19.0982264 Z M34.96056,11.4770134 C35.6186122,11.3048421 36.33504,11.3188969 36.8444997,11.8248696 C37.6157652,12.4696333 37.6352237,13.7486197 36.8940305,14.4197362 C36.1988302,15.1505856 34.9464083,15.099637 34.3007388,14.32838 C33.4445634,13.4253594 33.835503,11.9460922 34.96056,11.4770134 Z M16.8305145,16.1291508 C17.5681697,15.776024 18.5340205,16.0500925 18.8807362,16.8108083 C20.4444947,20.1540929 21.9781808,23.525487 23.5366324,26.8722853 C25.0968529,23.572922 26.5986978,20.2454491 28.132384,16.9355447 C28.3375831,16.4805206 28.6577644,16.1168528 29.1707621,16.0149555 C29.9844825,15.8322432 30.7575169,16.2609145 31.0175537,17.0409556 C31.2457492,17.748966 30.8318132,18.3533222 30.5558558,18.9787606 C28.6931435,22.9949185 26.841045,27.0216175 24.9854086,31.041289 C24.8067439,31.4014432 24.635155,31.7352446 24.2477533,31.9109295 C23.8408931,32.0813439 23.3278954,32.0831008 22.9104214,31.9495802 C22.4204202,31.7633542 22.2523692,31.3381966 22.0365564,30.9042548 C20.2941333,27.1217579 18.5340205,23.3462884 16.7933663,19.5620346 C16.5404054,18.9980859 16.2131483,18.4394078 16.0450973,17.8438358 C15.8752774,17.1674488 16.1954587,16.4348426 16.8305145,16.1291508 Z M36.7613587,16.464709 C37.3592664,17.0637947 37.1452225,18.1126338 37.1806017,18.8838907 C37.1823706,22.6909835 37.1770637,26.5033469 37.1841396,30.3086828 C37.1894464,30.7601931 37.1045365,31.1888644 36.7949689,31.5349637 C36.2342094,32.2113508 35.0525458,32.2218919 34.4900173,31.5402343 C34.1556843,31.1923781 34.1362258,30.7654637 34.1167673,30.3086828 C34.1167673,26.1502201 34.1220741,21.98473 34.1132293,17.8262673 C34.1203052,17.3150241 34.1468395,16.8459453 34.5218585,16.4576816 C35.0896939,15.8058905 36.1952923,15.811161 36.7613587,16.464709 Z M69.0501402,16.2767261 C72.0927471,17.1498803 74.5569049,19.9274593 74.8257865,23.0968157 C74.8682414,23.6713055 74.9832237,24.4776994 74.5692876,24.9467782 C74.2437994,25.3596379 73.762643,25.5300523 73.2443384,25.5265386 C69.4764589,25.5370797 65.7050415,25.5159975 61.938931,25.5370797 C62.1618196,26.1098126 62.4253943,26.6544359 62.8198718,27.132299 C64.0935212,28.7240046 66.3135629,29.4109327 68.2735678,28.8118471 C69.1067468,28.6098094 69.6515857,28.0704566 70.348555,27.6365148 C70.847401,27.4696141 71.5939011,27.4502887 71.9972234,27.8508504 C72.6676583,28.3937169 72.678272,29.5848608 72.0202198,30.1417821 C69.9664602,31.9812035 67.0246838,32.4502823 64.4030888,31.7229466 C62.6872,31.2327856 61.2384238,30.1013746 60.1788183,28.695895 C58.5779117,26.5771345 58.2878027,23.5641377 59.2023537,21.1115758 C59.8055682,19.5391956 60.9766181,18.1758804 62.3794014,17.2429933 C64.311103,15.951709 66.8265606,15.682911 69.0501402,16.2767261 Z M67.7570322,19.1070106 C65.2840296,18.5904969 62.6942758,20.106658 61.9300862,22.4942164 C65.1619716,22.522326 68.3956259,22.5152986 71.6275113,22.4977301 C71.0331416,20.7865587 69.5525241,19.4566236 67.7570322,19.1070106 Z M79.0872051,16.756346 C80.6828048,20.1207127 82.1828807,23.5325144 83.7979389,26.8863401 C85.2573289,23.6291411 86.7910151,20.4035655 88.2627877,17.1516371 C88.4379145,16.7932399 88.5865069,16.4365994 88.9367605,16.2117227 C89.7151018,15.7250754 90.8065486,15.997387 91.1780297,16.8564864 C91.4345285,17.3273221 91.3513875,17.7472091 91.1408816,18.2110174 C89.2551729,22.3097472 87.3482367,26.4137475 85.4660659,30.5124774 C85.209567,31.0483164 85.0132128,31.684296 84.4170741,31.9372823 C84.0402861,32.0848576 83.4777576,32.0795871 83.1009697,31.9267412 C82.6640372,31.7440288 82.5012931,31.3698199 82.3014009,30.9745288 C80.5253676,27.1094599 78.7281067,23.2514185 76.9432286,19.3881065 C76.6513506,18.7134763 76.1843458,18.0599283 76.2727937,17.2956988 C76.2816385,16.8828392 76.5027582,16.5437672 76.8140947,16.2872672 C77.5004502,15.7321028 78.7051103,15.9341405 79.0872051,16.756346 Z M100.859003,32.1 C105.355152,32.1 109,28.4761675 109,24.0059435 C109,19.5357196 105.355152,15.911887 100.859003,15.911887 C96.3628549,15.911887 92.7180065,19.5357196 92.7180065,24.0059435 C92.7180065,28.4761675 96.3628549,32.1 100.859003,32.1 Z M100.859003,29.0422453 C98.0613998,29.0422453 95.7934941,26.7874162 95.7934941,24.0059435 C95.7934941,21.2244708 98.0613998,18.9696417 100.859003,18.9696417 C103.656607,18.9696417 105.924512,21.2244708 105.924512,24.0059435 C105.924512,26.7874162 103.656607,29.0422453 100.859003,29.0422453 Z" id="Combined-Shape" fill="#0A5AAB"></path>
    </g>
</svg>