<?xml version="1.0" encoding="UTF-8"?>
<svg width="46px" height="50px" viewBox="0 0 46 50" version="1.1" xmlns="http://www.w3.org/2000/svg" xmlns:xlink="http://www.w3.org/1999/xlink">
    <title>Present icon</title>
    <g id="Symbols" stroke="none" stroke-width="1" fill="none" fill-rule="evenodd">
        <g id="DD-Profile-NEW4" transform="translate(-17.000000, -153.000000)" fill="#FFFFFF">
            <g id="Group-2" transform="translate(0.000000, 140.000000)">
                <g id="Present-icon" transform="translate(17.000000, 13.000000)">
                    <path d="M0.0156101505,12.8735631 C0.0766992245,13.1778849 0.317088697,13.4730258 0.736778569,13.7050922 L0.736778569,13.7050922 L21.2138474,25.0277085 C21.7050331,25.2993083 22.3524958,25.4351083 22.9999586,25.4351083 L22.9994978,50.0066839 C22.3598905,50.0034858 21.7208781,49.8431971 21.1422364,49.525795 L11.704,44.3481847 L11.6093006,44.39255 C11.4288142,44.4574045 11.2257066,44.4442401 11.0539415,44.3523939 L6.95897075,42.1623928 C6.74754978,42.0493419 6.61642644,41.8346827 6.61642644,41.6016989 L6.616,41.5571847 L1.05333495,38.5064371 C0.403763279,38.1501278 9.78909764e-16,37.4681341 0,36.7272564 L0,12.8744819 Z" id="Left" opacity="0.200000003"></path>
                    <path d="M45.9999172,12.7174751 L46.0009512,37.2846396 C45.8544174,37.7984365 45.5082034,38.2420577 45.0266932,38.5066577 L39.5400615,41.5214751 L39.5410247,41.6017157 C39.5410247,41.8014001 39.4446549,41.9876125 39.2840118,42.1079624 L39.1984828,42.1624063 L35.1035406,44.3523944 C34.897424,44.4626091 34.6461744,44.4595228 34.4430406,44.3442809 L34.4251997,44.3337938 L34.4251997,44.3337938 L24.9771882,49.524285 C24.3619958,49.8623463 23.6783726,50.0227221 22.9982423,50.0053851 L22.9999586,25.4351083 C23.6474213,25.4351083 24.294884,25.2993083 24.7860698,25.0277085 L24.7860698,25.0277085 L45.2631386,13.7051946 C45.7543243,13.4335948 45.9999172,13.0756 45.9999172,12.7176053 L45.9999172,12.7174751 Z" id="Right" opacity="0.400000006"></path>
                    <path d="M24.785967,0.407399773 L31.8914904,4.33665895 C31.905917,4.329298 31.9203508,4.32193336 31.9347918,4.31456503 C32.1339669,4.2122335 32.3734067,4.21420193 32.5707408,4.31979318 L36.6780165,6.600547 C36.8911066,6.71457583 37.0224732,6.93171114 37.0205677,7.16656774 L37.019,7.172 L45.2631386,11.7300161 C46.24551,12.2732158 46.24551,13.1619949 45.2631386,13.7051946 L24.7860698,25.0277085 C23.8036983,25.5709082 22.1962188,25.5709082 21.2138474,25.0277085 L0.736778569,13.7050922 C-0.245592856,13.1618925 -0.245592856,12.2731134 0.736778569,11.7299137 L9.14204323,7.0811808 C9.16401178,6.91352851 9.25388787,6.76096259 9.39150617,6.65691378 L9.47964489,6.600574 L13.5868908,4.3198337 C13.7842085,4.21418852 14.0236756,4.21221986 14.2228353,4.31460558 L14.179,4.296 L21.2138474,0.407399773 C22.1962188,-0.135799924 23.8036983,-0.135799924 24.785967,0.407399773 Z M22.5356597,5.80925312 C21.502048,5.80925312 20.6400054,6.51516132 20.1190021,7.66130709 C19.9512212,8.03248856 19.4912662,8.21085678 19.0860201,8.06189235 C18.5790781,7.87610667 18.0856728,7.77716927 17.6313034,7.77716927 C16.9845878,7.77716927 16.4280115,7.97514078 16.0215975,8.34971024 C15.2368921,9.07293006 15.8152017,10.214482 16.4549916,11.4614994 C16.6301285,11.8027996 15.8827683,12.2380564 15.5291367,12.4286778 C14.631521,12.9127263 14.0992897,13.5971643 14.0992897,14.3913714 C14.0992897,15.9688572 16.1986232,17.1137457 19.090952,17.1137457 C20.3963458,17.1137457 21.5394049,16.8800871 22.4014476,16.479115 C22.6093696,16.3819856 22.8534352,16.3752852 23.0672614,16.4608362 C23.8943606,16.7933355 24.9417188,16.9839568 26.1212953,16.9839568 C29.0136241,16.9839568 31.1129577,15.8390683 31.1129577,14.2615826 C31.1129577,13.4508375 30.5578505,12.7546006 29.6258161,12.2692947 C29.2694561,12.0837025 28.4360551,11.6959283 28.60626,11.3527906 C29.2129953,10.1296612 29.86234,8.96896358 29.0909614,8.25802631 C28.8075314,7.9968045 28.298176,7.68548535 27.4812555,7.68548535 C27.0073681,7.68548535 26.4912968,7.79322363 25.961584,7.99467681 C25.5581081,8.14816034 25.0994364,7.97204597 24.9256637,7.60298916 C24.402142,6.49117649 23.5516423,5.80925312 22.5356597,5.80925312 Z" id="Combined-Shape" fill-rule="nonzero" opacity="0.5"></path>
                    <path d="M14.1004264,13.4131847 L14.0992897,13.4493304 C14.0992897,13.6109317 14.121321,13.7679932 14.1639792,13.919749 C14.1214508,14.0718196 14.0992897,14.2293102 14.0992897,14.3913714 C14.0992897,15.8465892 15.8858041,16.9336705 18.4333149,17.0934436 L12.2299148,20.278954 C12.1962646,20.2962542 12.161121,20.3107104 12.1248788,20.3221602 L12.0422627,20.3666487 L12.0422627,43.7917 C12.0422805,44.0188401 11.9175814,44.2290378 11.7144462,44.3442804 C11.511311,44.459523 11.2600596,44.4626093 11.0539415,44.3523939 L6.95897075,42.1623928 C6.74754978,42.0493419 6.61642644,41.8346827 6.61642644,41.6016989 L6.61642644,18.8064912 C6.61642644,18.0142019 6.98991159,17.2647955 7.63126258,16.7689941 L7.6554229,16.7508436 C7.70906702,16.7103994 7.75994703,16.6747888 7.81226028,16.6407566 C7.88999398,16.5899028 7.97035901,16.5428875 8.05304457,16.4998926 L14.1004264,13.4131847 Z M31.0629734,12.9051868 L38.1043142,16.4996636 C38.1709301,16.5341066 38.235996,16.571263 38.2993358,16.6110323 C38.3143848,16.6205021 38.3271815,16.6288868 38.3399781,16.6372715 C38.534995,16.763333 38.7121558,16.9133143 38.8669972,17.0834368 C39.3011553,17.5600079 39.5407079,18.1724086 39.5410247,18.8065445 L39.5410247,18.8065445 L39.5410247,41.6017157 C39.5410247,41.8346809 39.4098547,42.0493091 39.1984828,42.1624063 L39.1984828,42.1624063 L35.1035406,44.3523944 C34.897424,44.4626091 34.6461744,44.4595228 34.4430406,44.3442809 C34.2399068,44.229039 34.1152086,44.0188426 34.1152263,43.7917038 L34.1152263,43.7917038 L34.1152263,20.3667914 L34.0327133,20.3223031 C33.9967801,20.3108604 33.9615636,20.2964585 33.9275756,20.2789985 L33.9275756,20.2789985 L27.3669369,16.9088274 C29.597109,16.6301331 31.1129577,15.6020388 31.1129577,14.2615826 C31.1129577,14.0990732 31.0906546,13.9411646 31.0474834,13.7886332 C31.0910235,13.6375109 31.1129577,13.4807861 31.1129577,13.3195415 C31.1129577,13.1777489 31.0959785,13.0394587 31.0629734,12.9051868 Z M32.5707408,4.31979318 L36.6780165,6.600547 C36.8911066,6.71457583 37.0224732,6.93171114 37.0205036,7.16656774 C37.0183566,7.40144671 36.883177,7.61643059 36.6680862,7.72696575 L29.6404264,11.3351847 L29.6258161,11.3272537 C29.3018525,11.1585335 29.1476932,10.8076571 29.250219,10.4874513 L29.2887642,10.3925225 C29.8954995,9.16939322 29.86234,8.02692254 29.0909614,7.31598526 C28.8075314,7.05476345 28.298176,6.7434443 27.4812555,6.7434443 C27.3683795,6.7434443 27.2531102,6.74955686 27.1358332,6.76159246 L31.9347918,4.31456503 C32.1339669,4.2122335 32.3734067,4.21420193 32.5707408,4.31979318 Z M13.5868908,4.3198337 C13.7842085,4.21418852 14.0236756,4.21221986 14.2228353,4.31460558 L14.2228353,4.31460558 L19.7018973,7.11052609 C19.5129592,7.18668225 19.2923954,7.19571281 19.0860201,7.1198513 C18.5790781,6.93406562 18.0856728,6.83512822 17.6313034,6.83512822 C16.9845878,6.83512822 16.4280115,7.03309974 16.0215975,7.40766919 C15.2368921,8.13088901 15.2163248,9.30082619 15.8561147,10.5478436 C15.9348844,10.7013471 15.9481907,10.8681146 15.906812,11.0225061 L9.48957513,7.72708471 C9.27435126,7.61665034 9.13906501,7.40161954 9.13687875,7.16667438 C9.13492291,6.93172923 9.2663989,6.71451514 9.47964489,6.600574 L9.47964489,6.600574 Z" id="Combined-Shape" fill-rule="nonzero" opacity="0.400000006"></path>
                    <path d="M31.1129577,13.3195415 C31.1129577,14.8970273 29.0136241,16.0419158 26.1212953,16.0419158 C24.9417188,16.0419158 23.8943606,15.8512945 23.0672614,15.5187952 C22.8534352,15.4332442 22.6093696,15.4399446 22.4014476,15.5370739 C21.5394049,15.938046 20.3963458,16.1717046 19.090952,16.1717046 C16.1986232,16.1717046 14.0992897,15.0268161 14.0992897,13.4493304 C14.0992897,12.6551232 14.631521,11.9706853 15.5291367,11.4866367 C15.8827683,11.2960154 16.0312516,10.8891438 15.8561147,10.5478436 C15.2163248,9.30082619 15.2368921,8.13088901 16.0215975,7.40766919 C16.4280115,7.03309974 16.9845878,6.83512822 17.6313034,6.83512822 C18.0856728,6.83512822 18.5790781,6.93406562 19.0860201,7.1198513 C19.4912662,7.26881573 19.9512212,7.09044752 20.1190021,6.71926605 C20.6400054,5.57312027 21.502048,4.86721208 22.5356597,4.86721208 C23.5516423,4.86721208 24.402142,5.54913545 24.9256637,6.66094811 C25.0994364,7.03000492 25.5581081,7.2061193 25.961584,7.05263576 C26.4912968,6.85118258 27.0073681,6.7434443 27.4812555,6.7434443 C28.298176,6.7434443 28.8075314,7.05476345 29.0909614,7.31598526 C29.86234,8.02692254 29.8954995,9.16939322 29.2887642,10.3925225 C29.1185593,10.7356603 29.2694561,11.1416615 29.6258161,11.3272537 C30.5578505,11.8125595 31.1129577,12.5087964 31.1129577,13.3195415 L31.1129577,13.3195415 Z" id="Path" fill-rule="nonzero"></path>
                </g>
            </g>
        </g>
    </g>
</svg>