<?xml version="1.0" encoding="UTF-8"?>
<svg width="28px" height="28px" viewBox="0 0 28 28" version="1.1" xmlns="http://www.w3.org/2000/svg" xmlns:xlink="http://www.w3.org/1999/xlink">
    <title>Icon/Magnifyer</title>
    <defs>
        <path d="M22.4941857,20.4571429 L18.0948929,16.05785 C18.7381571,15.0440429 19.1112143,13.8426857 19.1112143,12.5556071 C19.1112929,8.94085 16.1704429,6 12.5556071,6 C8.94085,6 6,8.94085 6,12.5556071 C6,16.1703643 8.94085,19.1112143 12.5556071,19.1112143 C13.7787286,19.1112143 14.9244571,18.7742214 15.9055,18.18855 L20.3341,22.6172286 L22.4941857,20.4571429 Z M8.44388571,12.5556071 C8.44388571,10.2884286 10.28835,8.44388571 12.5556071,8.44388571 C14.8228643,8.44388571 16.6674071,10.2884286 16.6674071,12.5556071 C16.6674071,14.8228643 14.8228643,16.6674071 12.5556071,16.6674071 C10.28835,16.6674071 8.44388571,14.8228643 8.44388571,12.5556071 Z" id="path-1"></path>
    </defs>
    <g id="Icon/Magnifyer" stroke="none" stroke-width="1" fill="none" fill-rule="evenodd">
        <mask id="mask-2" fill="white">
            <use xlink:href="#path-1"></use>
        </mask>
        <use id="Fill-1" fill="#2B2B2B" xlink:href="#path-1"></use>
    </g>
</svg>