<?xml version="1.0" encoding="UTF-8"?>
<svg width="28px" height="28px" viewBox="0 0 28 28" version="1.1" xmlns="http://www.w3.org/2000/svg" xmlns:xlink="http://www.w3.org/1999/xlink">
    <title>Icon/Chevron Up</title>
    <defs>
        <path d="M8.85034549,3.0030234 C9.00209865,3.01837334 9.14643326,3.05394785 9.28171286,3.12281513 C9.37673587,3.17114668 9.46412213,3.23296129 9.54016235,3.30566605 C9.80177565,3.55572479 9.91294493,3.9245381 9.83024982,4.26835591 C9.7910842,4.43118969 9.71013463,4.57431746 9.60180185,4.70458448 C8.00288424,6.40739015 6.3006523,8.01985937 4.64936839,9.67692638 C4.55881834,9.76269933 4.46074063,9.83633754 4.34586206,9.89099575 C4.06057484,10.0268634 3.71943023,10.0361978 3.42628807,9.9163024 C3.3083548,9.86807456 3.20591323,9.80003701 3.11023564,9.71934614 C1.40942195,8.10884751 -0.192986742,6.407079 -1.84394336,4.75042686 C-1.98958712,4.59526805 -2.0915923,4.41469888 -2.12803052,4.20809704 C-2.14930433,4.08674958 -2.14766788,3.9619795 -2.12323027,3.84115062 C-2.10293833,3.74054631 -2.06671831,3.64284605 -2.01642485,3.55230217 C-1.84296149,3.24053254 -1.50541706,3.0299895 -1.13558009,3.0030234 C-0.985026987,2.99202953 -0.83240105,3.01111323 -0.689921083,3.05871878 C-0.524203572,3.114103 -0.383796437,3.20672119 -0.259971964,3.32381631 L3.85743725,7.45554182 L7.97473736,3.32381631 L8.02055787,3.28046311 C8.06943308,3.23949538 8.11841739,3.20070568 8.17318381,3.16689433 C8.33922861,3.06452686 8.52491077,3.01422471 8.72106619,3.00084537 C8.78619677,3.00011936 8.78576039,3.00011936 8.85034549,3.0030234 Z" id="path-1"></path>
    </defs>
    <g id="Icon/Chevron-Up" stroke="none" stroke-width="1" fill="none" fill-rule="evenodd">
        <g id="Icon/caret2" transform="translate(14.357143, 13.857143) rotate(-90.000000) translate(-14.357143, -13.857143) translate(10.357143, 7.357143)">
            <mask id="mask-2" fill="white">
                <use xlink:href="#path-1"></use>
            </mask>
            <use id="Fill-1" fill="#2B2B2B" transform="translate(3.857143, 6.500000) rotate(-90.000000) translate(-3.857143, -6.500000) " xlink:href="#path-1"></use>
        </g>
    </g>
</svg>