<svg xmlns="http://www.w3.org/2000/svg" xmlns:xlink="http://www.w3.org/1999/xlink" width="126px" height="24px" viewBox="0 0 126 24"><title>Videvo Lite logo2</title><defs><rect id="path-1" x="0" y="0" width="24" height="24"></rect></defs><g id="Videvo-Lite-logo2" stroke="none" stroke-width="1" fill="none" fill-rule="evenodd"><path d="M9.578,13.642 L9.974,16.26 L10.084,16.26 L10.524,13.62 L13.472,4.6 L16.64,4.6 L10.92,20.11 L8.764,20.11 L3,4.6 L6.498,4.6 L9.578,13.642 Z M17.96,9 L20.82,9 L20.82,20 L17.96,20 L17.96,9 Z M17.542,5.898 C17.542,5.47266454 17.6996651,5.10966817 18.015,4.809 C18.3303349,4.50833183 18.7666639,4.358 19.324,4.358 C19.8813361,4.358 20.3323316,4.50833183 20.677,4.809 C21.0216684,5.10966817 21.194,5.47266454 21.194,5.898 C21.194,6.32333546 21.0216684,6.67899857 20.677,6.965 C20.3323316,7.25100143 19.8813361,7.394 19.324,7.394 C18.7666639,7.394 18.3303349,7.25100143 18.015,6.965 C17.6996651,6.67899857 17.542,6.32333546 17.542,5.898 Z M32.964,16.128 C32.964,16.7440031 32.9713333,17.3599969 32.986,17.976 C33.0006667,18.5920031 33.0666661,19.2739963 33.184,20.022 L31.138,20.022 L30.742,18.592 L30.654,18.592 C30.3606652,19.1053359 29.9390028,19.5196651 29.389,19.835 C28.8389972,20.1503349 28.1900037,20.308 27.442,20.308 C26.0633264,20.308 24.9926705,19.8533379 24.23,18.944 C23.4673295,18.0346621 23.086,16.6120097 23.086,14.676 C23.086,12.7986573 23.5113291,11.3393385 24.362,10.298 C25.2126709,9.25666146 26.4593251,8.736 28.102,8.736 C28.5566689,8.736 28.9306652,8.76166641 29.224,8.813 C29.5173348,8.86433359 29.8106652,8.94866608 30.104,9.066 L30.104,4.6 L32.964,4.6 L32.964,16.128 Z M28.102,17.888 C28.6593361,17.888 29.0993317,17.7523347 29.422,17.481 C29.7446683,17.2096653 29.9719993,16.8173359 30.104,16.304 L30.104,11.64 C29.8986656,11.4786659 29.6713346,11.3576671 29.422,11.277 C29.1726654,11.1963329 28.850002,11.156 28.454,11.156 C27.6473293,11.156 27.0423353,11.4273306 26.639,11.97 C26.2356646,12.5126694 26.034,13.4439934 26.034,14.764 C26.034,15.7026714 26.1989984,16.4579971 26.529,17.03 C26.8590017,17.6020029 27.3833297,17.888 28.102,17.888 Z M44.272,19.054 C43.8319978,19.4060018 43.2343371,19.7029988 42.479,19.945 C41.7236629,20.1870012 40.9206709,20.308 40.07,20.308 C38.2953245,20.308 36.9973374,19.7910052 36.176,18.757 C35.3546626,17.7229948 34.944,16.304009 34.944,14.5 C34.944,12.5639903 35.4059954,11.1120048 36.33,10.144 C37.2540046,9.17599516 38.5519916,8.692 40.224,8.692 C40.7813361,8.692 41.3239974,8.7653326 41.852,8.912 C42.3800026,9.0586674 42.8493313,9.30066498 43.26,9.638 C43.6706687,9.97533502 44.0006654,10.4299971 44.25,11.002 C44.4993346,11.5740029 44.624,12.2853291 44.624,13.136 C44.624,13.4440015 44.6056668,13.7739982 44.569,14.126 C44.5323331,14.4780018 44.4773337,14.8446648 44.404,15.226 L37.804,15.226 C37.8480002,16.1500046 38.0863312,16.8466643 38.519,17.316 C38.9516688,17.7853357 39.6519952,18.02 40.62,18.02 C41.2213363,18.02 41.7603309,17.9283342 42.237,17.745 C42.713669,17.5616657 43.0766654,17.3746676 43.326,17.184 L44.272,19.054 Z M40.18,10.98 C39.4319963,10.98 38.8783351,11.2036644 38.519,11.651 C38.1596649,12.0983356 37.9433337,12.6959963 37.87,13.444 L41.962,13.444 C42.020667,12.651996 41.8996682,12.0433355 41.599,11.618 C41.2983318,11.1926645 40.8253366,10.98 40.18,10.98 Z M61.344,8.692 C62.2240044,8.692 62.9866634,8.83133194 63.632,9.11 C64.2773366,9.38866806 64.8126645,9.78099747 65.238,10.287 C65.6633355,10.7930025 65.9823323,11.4053297 66.195,12.124 C66.4076677,12.8426703 66.514,13.6346623 66.514,14.5 C66.514,16.362676 66.0630045,17.7963283 65.161,18.801 C64.2589955,19.8056717 62.9866749,20.308 61.344,20.308 C60.4639956,20.308 59.7013366,20.1686681 59.056,19.89 C58.4106634,19.6113319 57.8716688,19.2190025 57.439,18.713 C57.0063312,18.2069975 56.6836677,17.5946703 56.471,16.876 C56.2583323,16.1573297 56.152,15.3653377 56.152,14.5 C56.152,12.637324 56.6066621,11.2036717 57.516,10.199 C58.4253379,9.19432831 59.7013251,8.692 61.344,8.692 Z M48.1,9 L50.146,14.764 L50.52,16.458 L50.63,16.458 L50.938,14.72 L52.808,9 L55.888,9 L51.29,20.11 L49.552,20.11 L44.778,9 L48.1,9 Z M61.344,11.112 C60.6399965,11.112 60.090002,11.3759974 59.694,11.904 C59.297998,12.4320026 59.1,13.2973273 59.1,14.5 C59.1,14.9840024 59.1439996,15.4313313 59.232,15.842 C59.3200004,16.2526687 59.4519991,16.612 59.628,16.92 C59.8040009,17.2280015 60.0349986,17.4663325 60.321,17.635 C60.6070014,17.8036675 60.947998,17.888 61.344,17.888 C62.0920037,17.888 62.6493315,17.6166694 63.016,17.074 C63.3826685,16.5313306 63.566,15.6733392 63.566,14.5 C63.566,13.4879949 63.397335,12.6703364 63.06,12.047 C62.722665,11.4236635 62.1506707,11.112 61.344,11.112 Z" id="Videvo" fill="#2B2B2B"></path><g id="Icon/Flash" transform="translate(65.240000, 0.000000)"><mask id="mask-2" fill="white"><use xlink:href="#path-1"></use></mask><g id="Background"></g><path d="M9.70146848,10.9926242 L9.70146848,6.54633439 C9.70146848,6.10196895 10.2238363,5.84413177 10.5985542,6.10353902 L22.903897,14.622201 C23.4202053,14.9796275 23.0270444,15.7588183 22.4160947,15.5889579 L14.6656789,13.4341348 L14.6656789,17.4537121 C14.6656789,17.8896377 14.1607745,18.1493771 13.7844071,17.9070673 L1.11188407,9.74834879 C0.575218288,9.40283709 0.960609532,8.60045455 1.58159895,8.7704049 L9.70146848,10.9926242 Z" id="Path" fill="#0A5AAB" mask="url(#mask-2)" transform="translate(12.000000, 12.000000) rotate(90.000000) translate(-12.000000, -12.000000) "></path></g><path d="M98.306,20 L98.306,17.316 L91.574,17.316 L91.574,4.6 L88.56,4.6 L88.56,20 L98.306,20 Z M101.43,7.394 C101.987333,7.394 102.438333,7.251 102.783,6.965 C103.127667,6.679 103.3,6.32333333 103.3,5.898 C103.3,5.47266667 103.127667,5.10966667 102.783,4.809 C102.438333,4.50833333 101.987333,4.358 101.43,4.358 C100.872667,4.358 100.436333,4.50833333 100.121,4.809 C99.8056667,5.10966667 99.648,5.47266667 99.648,5.898 C99.648,6.32333333 99.8056667,6.679 100.121,6.965 C100.436333,7.251 100.872667,7.394 101.43,7.394 Z M102.926,20 L102.926,9 L100.066,9 L100.066,20 L102.926,20 Z M109.042,20.308 C109.584667,20.308 110.12,20.242 110.648,20.11 C111.176,19.978 111.638,19.8166667 112.034,19.626 L112.034,19.626 L111.528,17.426 C111.264,17.5433333 111.025667,17.6313333 110.813,17.69 C110.600333,17.7486667 110.347333,17.778 110.054,17.778 C109.628667,17.778 109.339,17.613 109.185,17.283 C109.031,16.953 108.954,16.4066667 108.954,15.644 L108.954,15.644 L108.954,11.42 L111.638,11.42 L111.638,9 L108.954,9 L108.954,6.118 L106.094,6.932 L106.094,9 L104.576,9 L104.576,11.42 L106.094,11.42 L106.094,16.964 C106.094,18.152 106.332333,19.0063333 106.809,19.527 C107.285667,20.0476667 108.03,20.308 109.042,20.308 Z M117.886,20.308 C118.736667,20.308 119.539667,20.187 120.295,19.945 C121.050333,19.703 121.648,19.406 122.088,19.054 L122.088,19.054 L121.142,17.184 C120.892667,17.3746667 120.529667,17.5616667 120.053,17.745 C119.576333,17.9283333 119.037333,18.02 118.436,18.02 C117.468,18.02 116.767667,17.7853333 116.335,17.316 C115.902333,16.8466667 115.664,16.15 115.62,15.226 L115.62,15.226 L122.22,15.226 C122.293333,14.8446667 122.348333,14.478 122.385,14.126 C122.421667,13.774 122.44,13.444 122.44,13.136 C122.44,12.2853333 122.315333,11.574 122.066,11.002 C121.816667,10.43 121.486667,9.97533333 121.076,9.638 C120.665333,9.30066667 120.196,9.05866667 119.668,8.912 C119.14,8.76533333 118.597333,8.692 118.04,8.692 C116.368,8.692 115.07,9.176 114.146,10.144 C113.222,11.112 112.76,12.564 112.76,14.5 C112.76,16.304 113.170667,17.723 113.992,18.757 C114.813333,19.791 116.111333,20.308 117.886,20.308 Z M119.778,13.444 L115.686,13.444 C115.759333,12.696 115.975667,12.0983333 116.335,11.651 C116.694333,11.2036667 117.248,10.98 117.996,10.98 C118.641333,10.98 119.114333,11.1926667 119.415,11.618 C119.715667,12.0433333 119.836667,12.652 119.778,13.444 L119.778,13.444 Z" id="Lite" fill="#0A5AAB" fill-rule="nonzero"></path></g></svg>