<svg xmlns="http://www.w3.org/2000/svg" xmlns:xlink="http://www.w3.org/1999/xlink" width="126px" height="24px" viewBox="0 0 126 24"><title>Videvo Plus logo2</title><defs><rect id="path-1" x="0" y="0" width="24" height="24"></rect></defs><g id="Videvo-Plus-logo2" stroke="none" stroke-width="1" fill="none" fill-rule="evenodd"><path d="M86.32,4.754 C86.9360031,4.63666608 87.6143296,4.54500033 88.355,4.479 C89.0956704,4.41299967 89.832663,4.38 90.566,4.38 C91.3286705,4.38 92.0949962,4.44233271 92.865,4.567 C93.6350039,4.69166729 94.3279969,4.94099813 94.944,5.315 C95.5600031,5.68900187 96.0623314,6.20966333 96.451,6.877 C96.8396686,7.54433667 97.034,8.41332798 97.034,9.484 C97.034,10.4520048 96.865335,11.2696633 96.528,11.937 C96.190665,12.6043367 95.7433361,13.1506645 95.186,13.576 C94.6286639,14.0013355 93.9943369,14.3093324 93.283,14.5 C92.5716631,14.6906676 91.8346705,14.786 91.072,14.786 L90.72,14.786 C90.5586659,14.786 90.3900009,14.7823334 90.214,14.775 C90.0379991,14.7676666 89.8656675,14.7566667 89.697,14.742 L89.3979375,14.709 C89.3736459,14.7053334 89.3523334,14.7016667 89.334,14.698 L89.334,20 L86.32,20 L86.32,4.754 Z M90.808,6.976 C90.5146652,6.976 90.2360013,6.98699989 89.972,7.009 C89.7079987,7.03100011 89.4953341,7.05666652 89.334,7.086 L89.334,12.08 L89.4904442,12.1093333 C89.5230368,12.1142222 89.5588887,12.1191111 89.598,12.124 C89.7153339,12.1386667 89.8399993,12.1496666 89.972,12.157 C90.1040007,12.1643334 90.2323327,12.168 90.357,12.168 L90.632,12.168 C91.028002,12.168 91.4203314,12.1313337 91.809,12.058 C92.1976686,11.9846663 92.5459985,11.849001 92.854,11.651 C93.1620015,11.452999 93.4076658,11.1780018 93.591,10.826 C93.7743342,10.4739982 93.866,10.0120029 93.866,9.44 C93.866,8.95599758 93.7780009,8.55633491 93.602,8.241 C93.4259991,7.92566509 93.1950014,7.67266762 92.909,7.482 C92.6229986,7.29133238 92.2966685,7.1593337 91.93,7.086 C91.5633315,7.0126663 91.1893352,6.976 90.808,6.976 Z M101.786,16.304 C101.786,16.8173359 101.851999,17.1913322 101.984,17.426 C102.116001,17.6606678 102.328665,17.778 102.622,17.778 C102.798001,17.778 102.970332,17.7633335 103.139,17.734 C103.307668,17.7046665 103.516665,17.6386672 103.766,17.536 L104.074,19.78 C103.839332,19.8973339 103.480002,20.0146661 102.996,20.132 C102.511998,20.2493339 102.013336,20.308 101.5,20.308 C100.663996,20.308 100.026002,20.1136686 99.586,19.725 C99.1459978,19.3363314 98.926,18.6946711 98.926,17.8 L98.926,4.6 L101.786,4.6 L101.786,16.304 Z M108.056,9 L108.056,15.248 C108.056,16.1426711 108.162332,16.787998 108.375,17.184 C108.587668,17.580002 109.001997,17.778 109.618,17.778 C110.160669,17.778 110.611665,17.6166683 110.971,17.294 C111.330335,16.9713317 111.597999,16.5753357 111.774,16.106 L111.774,9 L114.634,9 L114.634,16.656 C114.634,17.2573363 114.663333,17.8476638 114.722,18.427 C114.780667,19.0063362 114.868666,19.5306643 114.986,20 L112.83,20 L112.324,18.372 L112.236,18.372 C111.898665,18.9293361 111.429336,19.3913315 110.828,19.758 C110.226664,20.1246685 109.515337,20.308 108.694,20.308 C108.136664,20.308 107.638002,20.2346674 107.198,20.088 C106.757998,19.9413326 106.391335,19.699335 106.098,19.362 C105.804665,19.024665 105.581001,18.5700029 105.427,17.998 C105.272999,17.4259971 105.196,16.7073377 105.196,15.842 L105.196,9 L108.056,9 Z M121.696,16.964 C121.696,16.6706652 121.571335,16.4360009 121.322,16.26 C121.072665,16.0839991 120.764668,15.9226674 120.398,15.776 C120.031331,15.6293326 119.628002,15.4790008 119.188,15.325 C118.747998,15.1709992 118.344668,14.9583347 117.978,14.687 C117.611332,14.4156653 117.303335,14.0710021 117.054,13.653 C116.804665,13.2349979 116.68,12.6960033 116.68,12.036 C116.68,10.9506612 117.002663,10.1220029 117.648,9.55 C118.293337,8.97799714 119.224661,8.692 120.442,8.692 C121.278004,8.692 122.03333,8.77999912 122.708,8.956 C123.38267,9.13200088 123.910665,9.3299989 124.292,9.55 L123.654,11.618 C123.316665,11.4859993 122.891336,11.3466674 122.378,11.2 C121.864664,11.0533326 121.344003,10.98 120.816,10.98 C119.965329,10.98 119.54,11.3099967 119.54,11.97 C119.54,12.2340013 119.664665,12.4466659 119.914,12.608 C120.163335,12.7693341 120.471331,12.919666 120.838,13.059 L121.724874,13.3910623 C121.830291,13.4300206 121.938,13.4696665 122.048,13.51 C122.488002,13.6713341 122.891332,13.880332 123.258,14.137 C123.624668,14.393668 123.932665,14.7273313 124.182,15.138 C124.431335,15.5486687 124.556,16.0766634 124.556,16.722 C124.556,17.8366722 124.200337,18.7129968 123.489,19.351 C122.777663,19.9890032 121.710674,20.308 120.288,20.308 C119.510663,20.308 118.781003,20.209001 118.099,20.011 C117.416997,19.812999 116.863335,19.5820013 116.438,19.318 L117.23,17.184 C117.567335,17.3746676 118.014664,17.5616657 118.572,17.745 C119.129336,17.9283342 119.70133,18.02 120.288,18.02 C120.713335,18.02 121.054332,17.9393341 121.311,17.778 C121.567668,17.6166659 121.696,17.3453352 121.696,16.964 Z" id="Plus" fill="#2c8cf4"></path><g id="Icon/Flash" transform="translate(63.000000, 0.000000)"><mask id="mask-2" fill="white"><use xlink:href="#path-1"></use></mask><g id="Background"></g><path d="M9.70146848,10.9926242 L9.70146848,6.54633439 C9.70146848,6.10196895 10.2238363,5.84413177 10.5985542,6.10353902 L22.903897,14.622201 C23.4202053,14.9796275 23.0270444,15.7588183 22.4160947,15.5889579 L14.6656789,13.4341348 L14.6656789,17.4537121 C14.6656789,17.8896377 14.1607745,18.1493771 13.7844071,17.9070673 L1.11188407,9.74834879 C0.575218288,9.40283709 0.960609532,8.60045455 1.58159895,8.7704049 L9.70146848,10.9926242 Z" id="Path" fill="#2c8cf4" mask="url(#mask-2)" transform="translate(12.000000, 12.000000) rotate(90.000000) translate(-12.000000, -12.000000) "></path></g><path d="M7.338,13.642 L7.734,16.26 L7.844,16.26 L8.284,13.62 L11.232,4.6 L14.4,4.6 L8.68,20.11 L6.524,20.11 L0.76,4.6 L4.258,4.6 L7.338,13.642 Z M15.72,9 L18.58,9 L18.58,20 L15.72,20 L15.72,9 Z M15.302,5.898 C15.302,5.47266454 15.4596651,5.10966817 15.775,4.809 C16.0903349,4.50833183 16.5266639,4.358 17.084,4.358 C17.6413361,4.358 18.0923316,4.50833183 18.437,4.809 C18.7816684,5.10966817 18.954,5.47266454 18.954,5.898 C18.954,6.32333546 18.7816684,6.67899857 18.437,6.965 C18.0923316,7.25100143 17.6413361,7.394 17.084,7.394 C16.5266639,7.394 16.0903349,7.25100143 15.775,6.965 C15.4596651,6.67899857 15.302,6.32333546 15.302,5.898 Z M30.724,16.128 C30.724,16.7440031 30.7313333,17.3599969 30.746,17.976 C30.7606667,18.5920031 30.8266661,19.2739963 30.944,20.022 L28.898,20.022 L28.502,18.592 L28.414,18.592 C28.1206652,19.1053359 27.6990028,19.5196651 27.149,19.835 C26.5989973,20.1503349 25.9500037,20.308 25.202,20.308 C23.8233264,20.308 22.7526705,19.8533379 21.99,18.944 C21.2273295,18.0346621 20.846,16.6120097 20.846,14.676 C20.846,12.7986573 21.2713291,11.3393385 22.122,10.298 C22.9726709,9.25666146 24.2193251,8.736 25.862,8.736 C26.3166689,8.736 26.6906652,8.76166641 26.984,8.813 C27.2773348,8.86433359 27.5706652,8.94866608 27.864,9.066 L27.864,4.6 L30.724,4.6 L30.724,16.128 Z M25.862,17.888 C26.4193361,17.888 26.8593317,17.7523347 27.182,17.481 C27.5046683,17.2096653 27.7319993,16.8173359 27.864,16.304 L27.864,11.64 C27.6586656,11.4786659 27.4313346,11.3576671 27.182,11.277 C26.9326654,11.1963329 26.610002,11.156 26.214,11.156 C25.4073293,11.156 24.8023354,11.4273306 24.399,11.97 C23.9956647,12.5126694 23.794,13.4439934 23.794,14.764 C23.794,15.7026714 23.9589984,16.4579971 24.289,17.03 C24.6190017,17.6020029 25.1433297,17.888 25.862,17.888 Z M42.032,19.054 C41.5919978,19.4060018 40.9943371,19.7029988 40.239,19.945 C39.4836629,20.1870012 38.6806709,20.308 37.83,20.308 C36.0553245,20.308 34.7573374,19.7910052 33.936,18.757 C33.1146626,17.7229948 32.704,16.304009 32.704,14.5 C32.704,12.5639903 33.1659954,11.1120048 34.09,10.144 C35.0140046,9.17599516 36.3119916,8.692 37.984,8.692 C38.5413361,8.692 39.0839974,8.7653326 39.612,8.912 C40.1400026,9.0586674 40.6093313,9.30066498 41.02,9.638 C41.4306687,9.97533502 41.7606654,10.4299971 42.01,11.002 C42.2593346,11.5740029 42.384,12.2853291 42.384,13.136 C42.384,13.4440015 42.3656669,13.7739982 42.329,14.126 C42.2923332,14.4780018 42.2373337,14.8446648 42.164,15.226 L35.564,15.226 C35.6080002,16.1500046 35.8463312,16.8466643 36.279,17.316 C36.7116688,17.7853357 37.4119952,18.02 38.38,18.02 C38.9813363,18.02 39.520331,17.9283342 39.997,17.745 C40.4736691,17.5616657 40.8366654,17.3746676 41.086,17.184 L42.032,19.054 Z M37.94,10.98 C37.1919963,10.98 36.6383351,11.2036644 36.279,11.651 C35.9196649,12.0983356 35.7033337,12.6959963 35.63,13.444 L39.722,13.444 C39.780667,12.651996 39.6596682,12.0433355 39.359,11.618 C39.0583318,11.1926645 38.5853366,10.98 37.94,10.98 Z M59.104,8.692 C59.9840044,8.692 60.7466634,8.83133194 61.392,9.11 C62.0373366,9.38866806 62.5726645,9.78099747 62.998,10.287 C63.4233355,10.7930025 63.7423323,11.4053297 63.955,12.124 C64.1676677,12.8426703 64.274,13.6346623 64.274,14.5 C64.274,16.362676 63.8230045,17.7963283 62.921,18.801 C62.0189955,19.8056717 60.7466749,20.308 59.104,20.308 C58.2239956,20.308 57.4613366,20.1686681 56.816,19.89 C56.1706634,19.6113319 55.6316688,19.2190025 55.199,18.713 C54.7663312,18.2069975 54.4436677,17.5946703 54.231,16.876 C54.0183323,16.1573297 53.912,15.3653377 53.912,14.5 C53.912,12.637324 54.3666621,11.2036717 55.276,10.199 C56.1853379,9.19432831 57.4613251,8.692 59.104,8.692 Z M45.86,9 L47.906,14.764 L48.28,16.458 L48.39,16.458 L48.698,14.72 L50.568,9 L53.648,9 L49.05,20.11 L47.312,20.11 L42.538,9 L45.86,9 Z M59.104,11.112 C58.3999965,11.112 57.850002,11.3759974 57.454,11.904 C57.057998,12.4320026 56.86,13.2973273 56.86,14.5 C56.86,14.9840024 56.9039996,15.4313313 56.992,15.842 C57.0800004,16.2526687 57.2119991,16.612 57.388,16.92 C57.5640009,17.2280015 57.7949986,17.4663325 58.081,17.635 C58.3670014,17.8036675 58.707998,17.888 59.104,17.888 C59.8520037,17.888 60.4093315,17.6166694 60.776,17.074 C61.1426685,16.5313306 61.326,15.6733392 61.326,14.5 C61.326,13.4879949 61.157335,12.6703364 60.82,12.047 C60.482665,11.4236635 59.9106707,11.112 59.104,11.112 Z" id="Videvo" fill="#2B2B2B"></path></g></svg>