<svg xmlns="http://www.w3.org/2000/svg" xmlns:xlink="http://www.w3.org/1999/xlink" width="126px" height="24px" viewBox="0 0 126 24"><title>Videvo Pro logo2</title><defs><rect id="path-1" x="0" y="0" width="24" height="24"></rect></defs><g id="Videvo-Pro-logo2" stroke="none" stroke-width="1" fill="none" fill-rule="evenodd"><g id="Group" transform="translate(6.000000, 0.000000)"><path d="M85.56,4.754 C86.1760031,4.63666608 86.8543296,4.54500033 87.595,4.479 C88.3356704,4.41299967 89.072663,4.38 89.806,4.38 C90.5686705,4.38 91.3349961,4.44233271 92.105,4.567 C92.8750038,4.69166729 93.5679969,4.94099813 94.184,5.315 C94.8000031,5.68900187 95.3023314,6.20966333 95.691,6.877 C96.0796686,7.54433667 96.274,8.41332798 96.274,9.484 C96.274,10.4520048 96.105335,11.2696633 95.768,11.937 C95.430665,12.6043367 94.9833361,13.1506645 94.426,13.576 C93.8686639,14.0013355 93.2343369,14.3093324 92.523,14.5 C91.8116631,14.6906676 91.0746705,14.786 90.312,14.786 L89.96,14.786 C89.7986659,14.786 89.6300009,14.7823334 89.454,14.775 C89.2779991,14.7676666 89.1056675,14.7566667 88.937,14.742 L88.6379375,14.709 C88.6136459,14.7053334 88.5923334,14.7016667 88.574,14.698 L88.574,20 L85.56,20 L85.56,4.754 Z M90.048,6.976 C89.7546652,6.976 89.4760013,6.98699989 89.212,7.009 C88.9479987,7.03100011 88.7353341,7.05666652 88.574,7.086 L88.574,12.08 L88.7304442,12.1093333 C88.7630368,12.1142222 88.7988887,12.1191111 88.838,12.124 C88.9553339,12.1386667 89.0799993,12.1496666 89.212,12.157 C89.3440007,12.1643334 89.4723327,12.168 89.597,12.168 L89.872,12.168 C90.268002,12.168 90.6603314,12.1313337 91.049,12.058 C91.4376686,11.9846663 91.7859985,11.849001 92.094,11.651 C92.4020015,11.452999 92.6476657,11.1780018 92.831,10.826 C93.0143342,10.4739982 93.106,10.0120029 93.106,9.44 C93.106,8.95599758 93.0180009,8.55633491 92.842,8.241 C92.6659991,7.92566509 92.4350014,7.67266762 92.149,7.482 C91.8629986,7.29133238 91.5366685,7.1593337 91.17,7.086 C90.8033315,7.0126663 90.4293352,6.976 90.048,6.976 Z M109.826,8.692 C110.706004,8.692 111.468663,8.83133194 112.114,9.11 C112.759337,9.38866806 113.294665,9.78099747 113.72,10.287 C114.145335,10.7930025 114.464332,11.4053297 114.677,12.124 C114.889668,12.8426703 114.996,13.6346623 114.996,14.5 C114.996,16.362676 114.545005,17.7963283 113.643,18.801 C112.740995,19.8056717 111.468675,20.308 109.826,20.308 C108.945996,20.308 108.183337,20.1686681 107.538,19.89 C106.892663,19.6113319 106.353669,19.2190025 105.921,18.713 C105.488331,18.2069975 105.165668,17.5946703 104.953,16.876 C104.740332,16.1573297 104.634,15.3653377 104.634,14.5 C104.634,12.637324 105.088662,11.2036717 105.998,10.199 C106.907338,9.19432831 108.183325,8.692 109.826,8.692 Z M102.588,8.758 C102.969335,8.758 103.401998,8.83866586 103.886,9 L103.512,11.684 C103.057331,11.5226659 102.646668,11.442 102.28,11.442 C101.766664,11.442 101.337668,11.5776653 100.993,11.849 C100.648332,12.1203347 100.417334,12.4686645 100.3,12.894 L100.3,20 L97.44,20 L97.44,9 L99.662,9 L99.992,10.452 L100.08,10.452 C100.329335,9.90933062 100.666665,9.4913348 101.092,9.198 C101.517335,8.9046652 102.015997,8.758 102.588,8.758 Z M109.826,11.112 C109.121996,11.112 108.572002,11.3759974 108.176,11.904 C107.779998,12.4320026 107.582,13.2973273 107.582,14.5 C107.582,14.9840024 107.626,15.4313313 107.714,15.842 C107.802,16.2526687 107.933999,16.612 108.11,16.92 C108.286001,17.2280015 108.516999,17.4663325 108.803,17.635 C109.089001,17.8036675 109.429998,17.888 109.826,17.888 C110.574004,17.888 111.131331,17.6166694 111.498,17.074 C111.864668,16.5313306 112.048,15.6733392 112.048,14.5 C112.048,13.4879949 111.879335,12.6703365 111.542,12.047 C111.204665,11.4236636 110.632671,11.112 109.826,11.112 Z" id="Pro" fill="#F1861B"></path><g transform="translate(62.240000, 0.000000)" id="Icon/Flash"><mask id="mask-2" fill="white"><use xlink:href="#path-1"></use></mask><g id="Background"></g><path d="M9.70146848,10.9926242 L9.70146848,6.54633439 C9.70146848,6.10196895 10.2238363,5.84413177 10.5985542,6.10353902 L22.903897,14.622201 C23.4202053,14.9796275 23.0270444,15.7588183 22.4160947,15.5889579 L14.6656789,13.4341348 L14.6656789,17.4537121 C14.6656789,17.8896377 14.1607745,18.1493771 13.7844071,17.9070673 L1.11188407,9.74834879 C0.575218288,9.40283709 0.960609532,8.60045455 1.58159895,8.7704049 L9.70146848,10.9926242 Z" id="Path" fill="#F1861B" mask="url(#mask-2)" transform="translate(12.000000, 12.000000) rotate(90.000000) translate(-12.000000, -12.000000) "></path></g><path d="M6.578,13.642 L6.974,16.26 L7.084,16.26 L7.524,13.62 L10.472,4.6 L13.64,4.6 L7.92,20.11 L5.764,20.11 L-3.87245791e-13,4.6 L3.498,4.6 L6.578,13.642 Z M14.96,9 L17.82,9 L17.82,20 L14.96,20 L14.96,9 Z M14.542,5.898 C14.542,5.47266454 14.6996651,5.10966817 15.015,4.809 C15.3303349,4.50833183 15.7666639,4.358 16.324,4.358 C16.8813361,4.358 17.3323316,4.50833183 17.677,4.809 C18.0216684,5.10966817 18.194,5.47266454 18.194,5.898 C18.194,6.32333546 18.0216684,6.67899857 17.677,6.965 C17.3323316,7.25100143 16.8813361,7.394 16.324,7.394 C15.7666639,7.394 15.3303349,7.25100143 15.015,6.965 C14.6996651,6.67899857 14.542,6.32333546 14.542,5.898 Z M29.964,16.128 C29.964,16.7440031 29.9713333,17.3599969 29.986,17.976 C30.0006667,18.5920031 30.0666661,19.2739963 30.184,20.022 L28.138,20.022 L27.742,18.592 L27.654,18.592 C27.3606652,19.1053359 26.9390027,19.5196651 26.389,19.835 C25.8389972,20.1503349 25.1900037,20.308 24.442,20.308 C23.0633264,20.308 21.9926705,19.8533379 21.23,18.944 C20.4673295,18.0346621 20.086,16.6120097 20.086,14.676 C20.086,12.7986573 20.5113291,11.3393385 21.362,10.298 C22.2126709,9.25666146 23.4593251,8.736 25.102,8.736 C25.5566689,8.736 25.9306652,8.76166641 26.224,8.813 C26.5173348,8.86433359 26.8106652,8.94866608 27.104,9.066 L27.104,4.6 L29.964,4.6 L29.964,16.128 Z M25.102,17.888 C25.6593361,17.888 26.0993317,17.7523347 26.422,17.481 C26.7446683,17.2096653 26.9719993,16.8173359 27.104,16.304 L27.104,11.64 C26.8986656,11.4786659 26.6713346,11.3576671 26.422,11.277 C26.1726654,11.1963329 25.850002,11.156 25.454,11.156 C24.6473293,11.156 24.0423353,11.4273306 23.639,11.97 C23.2356646,12.5126694 23.034,13.4439934 23.034,14.764 C23.034,15.7026714 23.1989983,16.4579971 23.529,17.03 C23.8590016,17.6020029 24.3833297,17.888 25.102,17.888 Z M41.272,19.054 C40.8319978,19.4060018 40.2343371,19.7029988 39.479,19.945 C38.7236629,20.1870012 37.9206709,20.308 37.07,20.308 C35.2953245,20.308 33.9973374,19.7910052 33.176,18.757 C32.3546626,17.7229948 31.944,16.304009 31.944,14.5 C31.944,12.5639903 32.4059954,11.1120048 33.33,10.144 C34.2540046,9.17599516 35.5519916,8.692 37.224,8.692 C37.7813361,8.692 38.3239974,8.7653326 38.852,8.912 C39.3800026,9.0586674 39.8493313,9.30066498 40.26,9.638 C40.6706687,9.97533502 41.0006654,10.4299971 41.25,11.002 C41.4993346,11.5740029 41.624,12.2853291 41.624,13.136 C41.624,13.4440015 41.6056668,13.7739982 41.569,14.126 C41.5323331,14.4780018 41.4773337,14.8446648 41.404,15.226 L34.804,15.226 C34.8480002,16.1500046 35.0863312,16.8466643 35.519,17.316 C35.9516688,17.7853357 36.6519952,18.02 37.62,18.02 C38.2213363,18.02 38.7603309,17.9283343 39.237,17.745 C39.713669,17.5616658 40.0766654,17.3746676 40.326,17.184 L41.272,19.054 Z M37.18,10.98 C36.4319963,10.98 35.8783351,11.2036644 35.519,11.651 C35.1596649,12.0983356 34.9433337,12.6959963 34.87,13.444 L38.962,13.444 C39.020667,12.651996 38.8996682,12.0433355 38.599,11.618 C38.2983318,11.1926645 37.8253366,10.98 37.18,10.98 Z M58.344,8.692 C59.2240044,8.692 59.9866634,8.83133194 60.632,9.11 C61.2773366,9.38866806 61.8126645,9.78099747 62.238,10.287 C62.6633355,10.7930025 62.9823323,11.4053297 63.195,12.124 C63.4076677,12.8426703 63.514,13.6346623 63.514,14.5 C63.514,16.362676 63.0630045,17.7963283 62.161,18.801 C61.2589955,19.8056717 59.9866749,20.308 58.344,20.308 C57.4639956,20.308 56.7013366,20.1686681 56.056,19.89 C55.4106634,19.6113319 54.8716688,19.2190025 54.439,18.713 C54.0063312,18.2069975 53.6836677,17.5946703 53.471,16.876 C53.2583323,16.1573297 53.152,15.3653377 53.152,14.5 C53.152,12.637324 53.6066621,11.2036717 54.516,10.199 C55.4253379,9.19432831 56.7013251,8.692 58.344,8.692 Z M45.1,9 L47.146,14.764 L47.52,16.458 L47.63,16.458 L47.938,14.72 L49.808,9 L52.888,9 L48.29,20.11 L46.552,20.11 L41.778,9 L45.1,9 Z M58.344,11.112 C57.6399965,11.112 57.090002,11.3759974 56.694,11.904 C56.297998,12.4320026 56.1,13.2973273 56.1,14.5 C56.1,14.9840024 56.1439996,15.4313313 56.232,15.842 C56.3200004,16.2526687 56.4519991,16.612 56.628,16.92 C56.8040009,17.2280015 57.0349986,17.4663325 57.321,17.635 C57.6070014,17.8036675 57.947998,17.888 58.344,17.888 C59.0920037,17.888 59.6493315,17.6166694 60.016,17.074 C60.3826685,16.5313306 60.566,15.6733392 60.566,14.5 C60.566,13.4879949 60.397335,12.6703365 60.06,12.047 C59.722665,11.4236636 59.1506707,11.112 58.344,11.112 Z" id="Videvo" fill="#2B2B2B"></path></g></g></svg>